<svg width="470" height="361" viewBox="0 0 470 361" fill="none" xmlns="http://www.w3.org/2000/svg">
<g clip-path="url(#clip0)">
<path d="M108.222 249.833L144.611 192.629L63.1164 140.827L21.0306 206.986L88.4366 249.833H108.222Z" fill="#F0F0F0"/>
<path d="M159.788 267.678H69.6513V249.541H159.788V267.678ZM70.8219 266.508H158.618V250.711H70.8219V266.508Z" fill="#3F3D56"/>
<path d="M148.667 264.46C151.9 264.46 154.521 261.841 154.521 258.609C154.521 255.378 151.9 252.758 148.667 252.758C145.435 252.758 142.814 255.378 142.814 258.609C142.814 261.841 145.435 264.46 148.667 264.46Z" fill="#5627D8"/>
<path d="M132.279 264.46C135.512 264.46 138.132 261.841 138.132 258.609C138.132 255.378 135.512 252.758 132.279 252.758C129.046 252.758 126.426 255.378 126.426 258.609C126.426 261.841 129.046 264.46 132.279 264.46Z" fill="#5627D8"/>
<path d="M115.89 264.46C119.123 264.46 121.743 261.841 121.743 258.609C121.743 255.378 119.123 252.758 115.89 252.758C112.658 252.758 110.037 255.378 110.037 258.609C110.037 261.841 112.658 264.46 115.89 264.46Z" fill="#5627D8"/>
<path d="M99.5019 264.46C102.734 264.46 105.355 261.841 105.355 258.609C105.355 255.378 102.734 252.758 99.5019 252.758C96.2693 252.758 93.6488 255.378 93.6488 258.609C93.6488 261.841 96.2693 264.46 99.5019 264.46Z" fill="#5627D8"/>
<path d="M83.1133 264.46C86.3459 264.46 88.9664 261.841 88.9664 258.609C88.9664 255.378 86.3459 252.758 83.1133 252.758C79.8808 252.758 77.2603 255.378 77.2603 258.609C77.2603 261.841 79.8808 264.46 83.1133 264.46Z" fill="#5627D8"/>
<path d="M266.899 66.1151V21.6483H289.141V0H180.274V108.827H273.337V98.1864C273.337 96.2029 273.728 94.2389 274.488 92.4064C275.247 90.574 276.36 88.9089 277.763 87.5064C279.166 86.1039 280.832 84.9914 282.665 84.2324C284.498 83.4733 286.463 83.0827 288.447 83.0827H289.141V66.1151H266.899Z" fill="#F0F0F0"/>
<path d="M387.472 280.843H314.894V296.055H387.472V280.843Z" fill="#5627D8"/>
<path d="M403.275 205.951H296.75V219.994H403.275V205.951Z" fill="#F0F0F0"/>
<path d="M455.367 359.83H0V361H455.367V359.83Z" fill="#3F3D56"/>
<path d="M421.528 361H288.447C284.286 360.995 280.297 359.341 277.354 356.4C274.412 353.458 272.757 349.471 272.752 345.311V98.1864C272.757 94.0269 274.412 90.0392 277.354 87.098C280.297 84.1568 284.286 82.5023 288.447 82.4976H421.528C425.689 82.5023 429.679 84.1568 432.621 87.098C435.563 90.0392 437.218 94.0269 437.223 98.1864V345.311C437.218 349.471 435.563 353.458 432.621 356.4C429.679 359.341 425.689 360.995 421.528 361ZM288.447 83.6678C284.596 83.6721 280.904 85.2032 278.182 87.925C275.459 90.6468 273.927 94.3372 273.923 98.1864V345.311C273.927 349.16 275.459 352.851 278.182 355.573C280.904 358.294 284.596 359.825 288.447 359.83H421.528C425.379 359.825 429.071 358.294 431.794 355.573C434.516 352.851 436.048 349.16 436.052 345.311V98.1864C436.048 94.3372 434.516 90.6468 431.794 87.925C429.071 85.2032 425.379 83.6721 421.528 83.6678H288.447Z" fill="#3F3D56"/>
<path d="M339.184 94.1994C338.49 94.1994 337.811 93.9935 337.233 93.6077C336.656 93.222 336.206 92.6737 335.94 92.0323C335.674 91.3908 335.604 90.6849 335.74 90.004C335.875 89.323 336.21 88.6975 336.701 88.2065C337.192 87.7155 337.818 87.3812 338.499 87.2457C339.18 87.1103 339.887 87.1798 340.528 87.4455C341.17 87.7112 341.718 88.1612 342.104 88.7385C342.49 89.3158 342.696 89.9945 342.696 90.6888C342.695 91.6196 342.325 92.5119 341.666 93.17C341.008 93.8282 340.115 94.1983 339.184 94.1994ZM339.184 88.3485C338.721 88.3485 338.269 88.4857 337.884 88.7429C337.499 89.0001 337.198 89.3656 337.021 89.7932C336.844 90.2209 336.798 90.6914 336.888 91.1454C336.978 91.5994 337.201 92.0164 337.529 92.3437C337.856 92.671 338.273 92.8939 338.728 92.9842C339.182 93.0745 339.652 93.0282 340.08 92.851C340.508 92.6739 340.874 92.3739 341.131 91.9891C341.388 91.6042 341.526 91.1517 341.526 90.6888C341.525 90.0683 341.278 89.4734 340.839 89.0347C340.4 88.5959 339.805 88.3491 339.184 88.3485Z" fill="#3F3D56"/>
<path d="M373.717 90.1037H347.964V91.2739H373.717V90.1037Z" fill="#3F3D56"/>
<path d="M426.687 99.4651V146.272C414.269 146.272 402.359 141.34 393.578 132.562C384.797 123.784 379.864 111.879 379.863 99.4651H426.687Z" fill="#5627D8"/>
<path d="M427.273 345.203H282.702V98.8801H427.273V345.203ZM283.873 344.032H426.102V100.05H283.873V344.032Z" fill="#3F3D56"/>
<path opacity="0.1" d="M392.74 143.347C401.468 143.347 408.543 136.274 408.543 127.549C408.543 118.825 401.468 111.752 392.74 111.752C384.012 111.752 376.936 118.825 376.936 127.549C376.936 136.274 384.012 143.347 392.74 143.347Z" fill="black"/>
<path d="M390.398 145.102C399.126 145.102 406.202 138.029 406.202 129.305C406.202 120.58 399.126 113.507 390.398 113.507C381.671 113.507 374.595 120.58 374.595 129.305C374.595 138.029 381.671 145.102 390.398 145.102Z" fill="#5627D8"/>
<path d="M311.382 108.827H289.141V117.018H311.382V108.827Z" fill="#3F3D56"/>
<path d="M323.674 186.643H301.432V194.835H323.674V186.643Z" fill="#3F3D56"/>
<path d="M409.128 217.068H301.432V201.856H409.128V217.068ZM302.603 215.898H407.958V203.026H302.603V215.898Z" fill="#3F3D56"/>
<path d="M403.275 250.418H296.75V264.46H403.275V250.418Z" fill="#F0F0F0"/>
<path d="M323.674 231.11H301.432V239.301H323.674V231.11Z" fill="#3F3D56"/>
<path d="M409.128 261.535H301.432V246.323H409.128V261.535ZM302.603 260.365H407.958V247.493H302.603V260.365Z" fill="#3F3D56"/>
<path d="M392.154 292.545H318.406V276.162H392.154V292.545ZM319.577 291.374H390.984V277.332H319.577V291.374Z" fill="#3F3D56"/>
<path d="M406.202 211.217C406.202 212.422 405.83 213.597 405.137 214.582C404.444 215.568 403.463 216.315 402.329 216.723C401.195 217.13 399.963 217.178 398.801 216.86C397.639 216.542 396.604 215.873 395.836 214.944L395.83 214.938C395.271 214.26 394.871 213.464 394.662 212.61C394.452 211.756 394.438 210.866 394.62 210.006C394.802 209.146 395.176 208.337 395.714 207.641C396.251 206.945 396.939 206.38 397.725 205.986C398.512 205.592 399.377 205.381 400.256 205.367C401.136 205.354 402.007 205.538 402.805 205.908C403.603 206.277 404.308 206.822 404.867 207.501C405.425 208.18 405.824 208.976 406.032 209.831C406.032 209.831 406.032 209.832 406.032 209.833C406.033 209.833 406.033 209.834 406.034 209.835C406.034 209.835 406.035 209.836 406.036 209.836C406.036 209.836 406.037 209.836 406.038 209.836C406.146 210.289 406.201 210.752 406.202 211.217Z" fill="#5627D8"/>
<path opacity="0.1" d="M406.202 211.217C406.202 212.422 405.83 213.597 405.137 214.582C404.443 215.568 403.463 216.315 402.329 216.723C401.195 217.13 399.963 217.178 398.801 216.86C397.639 216.542 396.604 215.873 395.836 214.944L395.83 214.938C395.722 214.486 395.667 214.023 395.666 213.558C395.666 212.353 396.038 211.178 396.731 210.193C397.424 209.207 398.405 208.46 399.539 208.052C400.672 207.644 401.905 207.596 403.067 207.915C404.229 208.233 405.264 208.902 406.032 209.831C406.032 209.831 406.032 209.832 406.032 209.833C406.033 209.833 406.033 209.834 406.034 209.835C406.034 209.835 406.035 209.836 406.036 209.836C406.036 209.836 406.037 209.836 406.038 209.836C406.146 210.289 406.201 210.752 406.202 211.217Z" fill="black"/>
<path d="M402.69 220.579C405.922 220.579 408.543 217.959 408.543 214.728C408.543 211.496 405.922 208.877 402.69 208.877C399.457 208.877 396.837 211.496 396.837 214.728C396.837 217.959 399.457 220.579 402.69 220.579Z" fill="#5627D8"/>
<path d="M406.202 255.684C406.202 256.888 405.83 258.064 405.137 259.049C404.444 260.034 403.463 260.782 402.329 261.19C401.195 261.597 399.963 261.645 398.801 261.327C397.639 261.009 396.604 260.339 395.836 259.411L395.83 259.405C395.271 258.727 394.871 257.931 394.662 257.077C394.452 256.223 394.438 255.333 394.62 254.473C394.802 253.612 395.176 252.804 395.714 252.108C396.251 251.412 396.939 250.846 397.725 250.453C398.512 250.059 399.377 249.847 400.256 249.834C401.136 249.82 402.007 250.005 402.805 250.375C403.603 250.744 404.308 251.288 404.867 251.968C405.425 252.647 405.824 253.443 406.032 254.297C406.032 254.298 406.032 254.299 406.032 254.3C406.033 254.3 406.033 254.301 406.034 254.301C406.034 254.302 406.035 254.302 406.036 254.303C406.036 254.303 406.037 254.303 406.038 254.303C406.146 254.756 406.201 255.219 406.202 255.684Z" fill="#5627D8"/>
<path opacity="0.1" d="M406.202 255.684C406.202 256.888 405.83 258.064 405.137 259.049C404.443 260.034 403.463 260.782 402.329 261.19C401.195 261.597 399.963 261.645 398.801 261.327C397.639 261.009 396.604 260.339 395.836 259.411L395.83 259.405C395.722 258.953 395.667 258.489 395.666 258.024C395.666 256.82 396.038 255.645 396.731 254.659C397.424 253.674 398.405 252.926 399.539 252.519C400.672 252.111 401.905 252.063 403.067 252.381C404.229 252.7 405.264 253.369 406.032 254.297C406.032 254.298 406.032 254.299 406.032 254.3C406.033 254.3 406.033 254.301 406.034 254.301C406.034 254.302 406.035 254.302 406.036 254.303C406.036 254.303 406.037 254.303 406.038 254.303C406.146 254.755 406.201 255.219 406.202 255.684Z" fill="black"/>
<path d="M402.69 265.045C405.922 265.045 408.543 262.426 408.543 259.194C408.543 255.963 405.922 253.344 402.69 253.344C399.457 253.344 396.837 255.963 396.837 259.194C396.837 262.426 399.457 265.045 402.69 265.045Z" fill="#5627D8"/>
<path d="M304.359 28.0843H273.923V58.5089H304.359V28.0843Z" fill="#F0F0F0"/>
<path d="M392.74 50.3177C391.351 50.3177 389.993 49.9059 388.838 49.1344C387.683 48.3629 386.782 47.2664 386.251 45.9834C385.719 44.7005 385.58 43.2888 385.851 41.9269C386.122 40.5649 386.791 39.3139 387.773 38.332C388.755 37.35 390.007 36.6813 391.369 36.4104C392.732 36.1395 394.144 36.2786 395.428 36.81C396.711 37.3414 397.808 38.2413 398.58 39.3959C399.351 40.5505 399.763 41.908 399.763 43.2966C399.761 45.1581 399.021 46.9427 397.704 48.259C396.387 49.5752 394.602 50.3156 392.74 50.3177ZM392.74 37.4457C391.582 37.4457 390.45 37.7889 389.488 38.4318C388.525 39.0747 387.775 39.9885 387.332 41.0576C386.889 42.1267 386.773 43.3031 386.999 44.4381C387.225 45.573 387.782 46.6156 388.601 47.4338C389.42 48.2521 390.462 48.8093 391.598 49.0351C392.733 49.2608 393.91 49.145 394.98 48.7021C396.049 48.2593 396.963 47.5094 397.606 46.5472C398.249 45.585 398.593 44.4538 398.593 43.2966C398.591 41.7454 397.974 40.2582 396.876 39.1614C395.779 38.0645 394.291 37.4475 392.74 37.4457Z" fill="#3F3D56"/>
<path d="M238.219 148.028H223.001V132.815H238.219V148.028ZM224.172 146.857H237.049V133.985H224.172V146.857Z" fill="#3F3D56"/>
<path d="M470 261.535H454.782V246.323H470V261.535ZM455.953 260.365H468.829V247.493H455.953V260.365Z" fill="#3F3D56"/>
<path d="M169.74 159.534L172.352 160.94L181.238 165.728L195.584 173.454L203.944 157.949C204.731 156.492 205.224 154.894 205.393 153.247C205.561 151.599 205.404 149.935 204.928 148.348C204.453 146.762 203.669 145.285 202.622 144.002C201.575 142.719 200.285 141.655 198.826 140.87C195.708 139.187 192.136 138.537 188.625 139.013C185.114 139.49 181.844 141.068 179.288 143.52L179.283 143.525C178.026 144.732 176.964 146.129 176.137 147.664L169.74 159.534Z" fill="#2F2E41"/>
<path d="M208.895 317.667L207.143 336.939L200.57 337.815L196.188 315.914L208.895 317.667Z" fill="#FFB8B8"/>
<path d="M198.817 337.815C198.817 337.815 207.143 333.435 208.895 336.939C208.895 336.939 207.581 347.451 212.839 348.765C218.097 350.079 220.288 359.278 212.839 360.154C205.39 361.03 200.57 358.402 197.941 358.402C195.312 358.402 197.941 349.203 197.941 349.203L198.817 337.815Z" fill="#2F2E41"/>
<path d="M155.876 317.667L157.629 336.939L164.202 337.815L168.583 315.914L155.876 317.667Z" fill="#FFB8B8"/>
<path d="M165.954 337.815C165.954 337.815 157.629 333.435 155.876 336.939C155.876 336.939 157.191 347.451 151.933 348.765C146.674 350.079 144.484 359.278 151.933 360.154C159.382 361.03 164.201 358.402 166.831 358.402C169.46 358.402 166.831 349.203 166.831 349.203L165.954 337.815Z" fill="#2F2E41"/>
<path d="M191.807 163.047C198.099 163.047 203.199 157.948 203.199 151.659C203.199 145.369 198.099 140.27 191.807 140.27C185.515 140.27 180.414 145.369 180.414 151.659C180.414 157.948 185.515 163.047 191.807 163.047Z" fill="#FFB8B8"/>
<path d="M155.438 173.997L164.64 188.452L175.594 187.576L193.559 188.89C193.559 188.89 195.255 185.5 196.64 182.201C197.398 180.554 197.981 178.832 198.379 177.064C198.817 173.997 192.683 170.931 192.683 170.931C192.683 170.931 192.442 170.888 192.039 170.791C191.504 170.664 190.68 170.454 189.778 170.147C187.74 169.455 185.291 168.281 184.796 166.551C183.919 163.485 190.492 159.105 190.492 159.105L182.605 151.659C182.605 151.659 175.598 161.387 167.089 163.603C166.596 163.734 166.095 163.836 165.59 163.91C165.564 163.914 165.542 163.919 165.516 163.923C156.314 165.237 155.438 173.997 155.438 173.997Z" fill="#FFB8B8"/>
<path d="M160.258 170.055L155.438 173.997C155.438 173.997 151.494 192.832 152.809 198.088C154.123 203.344 152.371 208.163 152.371 209.039C152.371 209.915 148.427 242.766 148.427 242.766C148.427 242.766 140.54 260.286 148.865 258.534C157.191 256.782 154.123 239.262 154.123 239.262L164.201 208.601V182.758L160.258 170.055Z" fill="#FFB8B8"/>
<path d="M194.874 173.559L198.379 176.187L200.132 212.981L213.277 244.518C213.277 244.518 222.917 259.848 216.783 260.286C210.648 260.724 206.705 244.518 206.705 244.518L194.874 214.295L193.121 184.948L194.874 173.559Z" fill="#FFB8B8"/>
<path d="M172.965 176.188C172.965 176.188 181.729 182.32 195.75 180.13C195.75 180.13 199.694 188.014 197.503 192.394C195.312 196.774 200.132 207.287 201.008 208.601C201.885 209.915 211.963 237.072 215.468 266.419C218.973 295.765 228.613 315.914 220.288 318.542C211.963 321.17 194.874 324.236 193.121 321.608C191.368 318.98 188.739 253.716 188.739 253.716L183.919 278.683C183.919 278.683 190.492 321.17 185.672 322.046C180.852 322.922 150.618 320.294 151.494 315.038C152.371 309.782 161.134 282.187 161.134 282.187C161.134 282.187 160.696 226.997 169.46 216.485C169.46 216.485 172.965 210.791 168.145 203.344C163.325 195.898 163.763 184.072 163.763 184.072C163.763 184.072 167.269 184.072 172.965 176.188Z" fill="#2F2E41"/>
<path d="M165.59 163.91L172.965 180.13L174.718 179.254L167.089 163.603L165.59 163.91Z" fill="#2F2E41"/>
<path d="M189.778 170.147L195.312 182.32L196.64 182.201L196.188 180.13L192.039 170.791C191.504 170.664 190.68 170.454 189.778 170.147Z" fill="#2F2E41"/>
<path d="M172.352 160.94C172.773 162.295 173.585 163.496 174.686 164.392C175.787 165.287 177.127 165.839 178.54 165.976C179.953 166.114 181.375 165.831 182.628 165.165C183.881 164.498 184.91 163.476 185.584 162.228C180.042 154.983 184.796 150.432 193.8 146.989C194.479 145.731 194.767 144.299 194.629 142.877C194.491 141.454 193.932 140.105 193.025 139C190.543 138.683 188.021 138.924 185.644 139.706C183.268 140.488 181.096 141.791 179.288 143.52L179.283 143.525L172.886 155.386C172.431 156.229 172.148 157.155 172.057 158.109C171.965 159.063 172.065 160.026 172.352 160.94Z" fill="#2F2E41"/>
<path d="M185.015 155.601C185.862 155.601 186.548 154.424 186.548 152.973C186.548 151.521 185.862 150.345 185.015 150.345C184.168 150.345 183.481 151.521 183.481 152.973C183.481 154.424 184.168 155.601 185.015 155.601Z" fill="#FFB8B8"/>
<path d="M189.585 148.685L202.757 154.65L205.171 149.324C204.755 147.377 203.884 145.557 202.63 144.011L193.564 139.907L189.585 148.685Z" fill="#2F2E41"/>
<path d="M221.245 266.216C224.478 266.216 227.098 263.596 227.098 260.365C227.098 257.133 224.478 254.514 221.245 254.514C218.013 254.514 215.392 257.133 215.392 260.365C215.392 263.596 218.013 266.216 221.245 266.216Z" fill="#5627D8"/>
<path d="M33.3369 300.997C35.4495 300.997 37.1621 299.285 37.1621 297.173C37.1621 295.062 35.4495 293.35 33.3369 293.35C31.2243 293.35 29.5117 295.062 29.5117 297.173C29.5117 299.285 31.2243 300.997 33.3369 300.997Z" fill="#FF6584"/>
<path d="M52.6629 317.102H51.4923V360.639H52.6629V317.102Z" fill="#3F3D56"/>
<path d="M52.0777 323.259C55.4793 323.259 58.2368 320.502 58.2368 317.102C58.2368 313.702 55.4793 310.945 52.0777 310.945C48.6761 310.945 45.9186 313.702 45.9186 317.102C45.9186 320.502 48.6761 323.259 52.0777 323.259Z" fill="#3F3D56"/>
<path d="M52.0777 343.935C52.0777 343.935 51.1978 325.018 33.1606 327.217L52.0777 343.935Z" fill="#3F3D56"/>
</g>
<defs>
<clipPath id="clip0">
<rect width="470" height="361" fill="white"/>
</clipPath>
</defs>
</svg>
